<?xml version="1.0" standalone="no"?>
<!DOCTYPE svg PUBLIC "-//W3C//DTD SVG 20010904//EN"
 "http://www.w3.org/TR/2001/REC-SVG-20010904/DTD/svg10.dtd">
<svg version="1.0" xmlns="http://www.w3.org/2000/svg"
 width="697.000000pt" height="697.000000pt" viewBox="0 0 697.000000 697.000000"
 preserveAspectRatio="xMidYMid meet">
<metadata>
Created by potrace 1.14, written by Peter Selinger 2001-2017
</metadata>
<g transform="translate(0.000000,697.000000) scale(0.100000,-0.100000)"
fill="#000000" stroke="none">
<path d="M2934 6733 c8 -15 10 -15 -102 -15 -45 0 -85 -5 -88 -9 -3 -5 -36 -9
-74 -9 -38 0 -71 -4 -74 -8 -2 -4 -24 -9 -47 -11 -24 -1 -48 -5 -54 -10 -5 -4
-19 -7 -30 -6 -11 0 -31 -4 -45 -8 -26 -10 -48 -14 -117 -23 -24 -4 -43 -10
-43 -15 0 -5 -10 -9 -23 -9 -13 0 -28 -5 -35 -12 -7 -7 -12 -9 -12 -5 0 3 -18
0 -41 -8 -23 -8 -45 -12 -50 -9 -5 3 -9 0 -9 -5 0 -6 -12 -11 -26 -11 -14 0
-23 -4 -19 -10 3 -6 -5 -10 -19 -10 -14 0 -27 -4 -30 -9 -4 -5 -17 -8 -31 -6
-16 1 -25 -3 -25 -11 0 -7 -6 -11 -14 -8 -7 3 -20 -2 -29 -10 -8 -8 -17 -13
-20 -10 -2 3 -37 -11 -77 -30 -40 -20 -80 -37 -89 -38 -9 -2 -25 -11 -35 -20
-10 -10 -23 -15 -28 -12 -4 3 -15 -1 -23 -8 -36 -33 -46 -39 -54 -33 -5 3 -13
0 -17 -6 -3 -6 -26 -20 -50 -31 -24 -10 -44 -23 -44 -29 0 -6 -5 -7 -10 -4 -6
3 -10 3 -10 -2 0 -4 -23 -19 -50 -32 -27 -14 -46 -29 -43 -34 4 -6 0 -8 -10
-4 -10 4 -20 0 -26 -11 -6 -9 -11 -13 -11 -9 0 4 -10 -1 -22 -12 -11 -11 -24
-19 -27 -17 -3 1 -14 -5 -24 -16 -9 -10 -14 -18 -10 -19 5 0 -3 -5 -17 -10
-14 -6 -25 -9 -25 -7 0 2 -12 -8 -25 -21 -14 -12 -41 -35 -60 -50 -46 -34 -97
-81 -182 -163 -38 -38 -73 -68 -78 -68 -6 0 -10 -4 -10 -10 0 -5 -10 -20 -22
-33 -51 -54 -88 -98 -88 -105 0 -5 -13 -21 -30 -37 -16 -16 -28 -31 -25 -33 3
-3 -4 -11 -15 -19 -11 -8 -20 -21 -20 -29 0 -8 -4 -14 -8 -14 -5 0 -15 -11
-22 -25 -7 -13 -18 -22 -23 -18 -6 3 -7 1 -3 -5 3 -6 0 -16 -7 -24 -7 -7 -14
-16 -15 -20 -8 -28 -16 -38 -30 -38 -8 0 -12 -3 -9 -6 4 -4 -2 -19 -13 -34
-11 -16 -20 -33 -20 -39 0 -6 -4 -11 -10 -11 -5 0 -10 -7 -10 -15 0 -8 -4 -15
-10 -15 -5 0 -10 -6 -10 -14 0 -8 -6 -21 -13 -28 -15 -16 -41 -70 -39 -80 1
-5 -2 -8 -8 -8 -5 0 -10 -7 -10 -15 0 -9 -6 -18 -14 -21 -9 -3 -12 -12 -9 -21
4 -11 2 -14 -5 -9 -7 4 -12 1 -12 -9 0 -17 -20 -56 -35 -67 -5 -4 -6 -8 -1 -8
4 0 2 -10 -6 -22 -8 -13 -14 -31 -12 -41 1 -9 -2 -15 -7 -11 -5 3 -9 1 -9 -5
0 -5 -5 -22 -11 -38 -6 -15 -10 -29 -10 -30 0 -2 -8 -19 -19 -38 -11 -20 -20
-47 -20 -60 0 -14 -4 -25 -10 -25 -5 0 -10 -11 -10 -25 0 -14 -4 -25 -10 -25
-5 0 -10 -13 -10 -30 0 -16 -5 -30 -11 -30 -6 0 -9 -6 -6 -14 3 -7 2 -17 -3
-22 -5 -5 -11 -21 -14 -36 -2 -14 -9 -35 -15 -46 -6 -11 -8 -22 -5 -25 3 -2
-1 -20 -8 -38 -7 -19 -13 -45 -13 -59 1 -14 -3 -28 -7 -31 -5 -3 -10 -25 -11
-50 -1 -24 -6 -50 -11 -58 -5 -8 -8 -36 -7 -63 1 -27 -2 -47 -7 -44 -5 3 -9
-35 -10 -84 -1 -49 -6 -99 -11 -112 -9 -26 -7 -520 3 -558 4 -14 7 -59 7 -100
1 -41 6 -81 11 -88 6 -7 8 -32 6 -57 -4 -28 -1 -48 6 -54 7 -6 13 -27 14 -48
2 -20 7 -42 11 -48 5 -5 8 -21 7 -35 -1 -14 3 -28 8 -32 5 -3 10 -19 11 -35 1
-15 6 -36 9 -45 4 -9 9 -22 10 -30 2 -7 8 -24 13 -38 6 -14 9 -28 6 -32 -2 -5
1 -8 6 -8 6 0 11 -11 11 -24 0 -14 5 -28 10 -31 6 -3 10 -19 10 -36 0 -16 5
-29 10 -29 6 0 10 -9 10 -20 0 -11 4 -28 9 -38 5 -9 16 -32 23 -49 7 -18 16
-33 20 -33 5 0 7 -3 6 -7 -4 -15 21 -73 32 -73 6 0 9 -4 5 -9 -3 -5 1 -16 9
-24 8 -8 13 -17 11 -19 -3 -3 4 -23 15 -46 11 -22 20 -46 20 -52 0 -5 3 -10 8
-10 4 0 17 -22 30 -50 13 -27 28 -50 33 -50 6 0 7 -4 4 -10 -3 -5 -1 -10 4
-10 6 0 11 -7 11 -15 0 -8 5 -15 10 -15 6 0 10 -7 10 -15 0 -14 16 -37 48 -71
7 -7 12 -15 11 -16 -4 -4 55 -92 64 -96 4 -2 7 -8 7 -13 0 -5 14 -23 30 -41
17 -17 30 -35 30 -40 0 -5 5 -6 12 -2 7 4 8 3 4 -4 -4 -7 6 -25 21 -41 58 -62
72 -79 66 -85 -4 -3 2 -6 11 -6 10 0 16 -5 14 -12 -2 -6 16 -30 41 -52 25 -23
51 -46 58 -52 7 -7 9 -14 6 -18 -4 -3 -1 -6 6 -6 7 0 34 -21 61 -47 60 -59 77
-73 87 -73 5 0 15 -9 23 -20 8 -11 19 -20 25 -20 6 0 17 -9 25 -20 8 -11 18
-20 23 -20 4 0 20 -12 35 -26 15 -14 41 -32 57 -41 17 -9 37 -24 46 -34 9 -11
23 -19 30 -19 8 0 21 -9 29 -19 7 -11 17 -18 22 -15 4 3 8 0 8 -7 0 -7 3 -10
6 -6 4 3 12 1 20 -6 28 -26 40 -34 69 -48 41 -21 79 -43 85 -50 13 -14 188
-98 194 -92 3 3 6 1 6 -5 0 -7 8 -12 19 -12 10 0 24 -6 31 -14 6 -8 18 -12 25
-9 16 5 45 -19 45 -37 0 -14 -25 -40 -38 -40 -17 0 -82 -71 -76 -82 4 -7 2 -8
-4 -4 -7 4 -17 -3 -23 -18 -7 -14 -16 -23 -20 -20 -5 3 -9 -1 -9 -9 0 -8 -13
-32 -29 -54 -16 -23 -27 -44 -24 -47 3 -3 -1 -8 -10 -12 -9 -3 -13 -12 -10
-20 3 -8 0 -14 -6 -14 -6 0 -11 -6 -11 -12 0 -7 -9 -24 -20 -38 -11 -14 -20
-35 -20 -47 0 -13 -4 -23 -9 -23 -11 0 -9 -75 2 -86 4 -4 7 -14 7 -22 0 -7 10
-22 23 -33 20 -17 43 -18 298 -19 278 0 336 7 324 38 -2 6 2 12 9 12 8 0 13 8
12 18 -2 9 1 20 6 23 5 3 10 16 11 27 1 12 5 22 9 22 4 0 8 9 8 20 0 11 4 20
9 20 5 0 11 8 14 17 12 38 45 81 117 152 77 77 140 121 140 98 0 -8 3 -8 9 2
5 8 14 10 22 5 8 -4 33 -9 57 -10 24 -2 49 -7 55 -11 7 -5 29 -9 51 -8 21 0
40 -4 43 -11 2 -6 16 -10 31 -8 37 5 93 -6 87 -16 -3 -5 7 -5 22 -2 16 4 44 6
63 5 77 -6 160 -8 160 -3 0 3 22 4 50 3 27 0 50 2 50 6 0 4 21 7 47 8 26 1 49
7 51 12 2 7 10 8 21 1 10 -5 21 -6 25 -3 6 6 10 -18 7 -48 -3 -25 27 -129 48
-170 36 -69 46 -83 74 -110 15 -15 27 -30 27 -33 0 -4 16 -22 35 -42 19 -19
35 -32 35 -29 0 3 8 -3 18 -12 34 -32 72 -63 72 -58 0 3 17 -5 37 -19 20 -14
40 -23 45 -20 4 3 8 1 8 -4 0 -5 26 -20 58 -32 31 -12 67 -26 79 -31 13 -4 30
-6 38 -3 8 4 22 1 29 -5 26 -22 351 -37 375 -18 12 10 13 9 6 -2 -6 -11 -5
-12 6 -5 8 5 33 9 56 10 46 0 96 21 87 36 -3 5 -1 14 4 21 9 10 18 109 12 127
-8 25 -12 54 -15 102 -2 32 -8 65 -13 75 -5 10 -8 34 -8 53 1 19 -3 41 -8 49
-6 8 -11 21 -12 30 0 9 -5 27 -11 41 -6 14 -9 28 -7 31 2 4 -3 10 -12 13 -8 3
-13 10 -10 15 7 11 -48 115 -76 143 -10 10 -16 23 -13 28 4 6 -2 10 -11 10
-10 0 -15 3 -11 6 3 3 -4 16 -16 29 -12 12 -31 33 -42 47 -11 14 -36 33 -55
44 -41 22 -66 44 -51 44 6 0 8 6 5 13 -3 10 13 18 53 27 32 8 73 22 91 32 18
10 37 16 42 13 4 -3 10 2 14 10 3 9 12 12 22 8 12 -4 15 -3 10 5 -5 8 1 12 17
12 14 0 30 7 37 15 7 8 16 12 21 9 5 -3 9 0 9 6 0 6 5 8 10 5 6 -3 10 -2 10 3
0 7 50 36 58 33 1 -1 12 8 24 18 11 11 25 18 30 15 4 -3 8 -1 8 5 0 6 16 18
36 27 20 9 38 23 41 31 3 7 9 10 14 7 5 -3 9 -1 9 3 0 5 14 17 32 27 45 27 68
48 62 58 -3 4 1 6 8 3 7 -3 27 7 43 22 31 29 85 43 85 23 0 -6 5 -8 10 -5 6 3
10 1 10 -5 0 -6 5 -8 10 -5 6 3 10 -1 10 -10 0 -9 5 -13 10 -10 6 3 13 -1 16
-9 3 -9 12 -16 18 -16 24 0 35 -43 21 -82 -18 -54 -8 -218 16 -243 5 -5 9 -19
9 -32 0 -13 5 -23 11 -23 6 0 9 -7 5 -15 -3 -8 1 -21 9 -29 8 -7 12 -16 9 -18
-2 -3 5 -13 16 -23 11 -10 20 -23 20 -29 0 -17 164 -166 183 -166 9 0 17 -5
17 -11 0 -5 5 -7 10 -4 6 3 10 2 10 -4 0 -6 18 -16 40 -22 22 -7 40 -16 40
-21 0 -6 6 -8 13 -5 6 2 21 0 31 -6 24 -12 216 -17 216 -5 0 4 11 8 25 8 14 0
34 9 44 19 11 11 22 17 25 13 3 -3 6 0 6 6 0 6 8 13 18 16 9 3 26 22 36 41 11
19 23 35 27 35 4 0 10 14 14 31 4 17 12 32 19 35 7 3 13 10 13 17 0 7 5 30 10
52 6 22 9 48 7 58 -1 9 1 17 6 17 10 0 8 20 -4 39 -7 10 -5 12 3 6 10 -6 11
-3 2 13 -6 11 -11 41 -11 66 0 25 -4 46 -10 46 -5 0 -10 11 -10 24 0 14 -4 28
-10 31 -5 3 -10 13 -10 21 0 16 -58 107 -72 112 -4 2 -8 8 -8 14 0 14 -112
118 -127 118 -7 0 -13 5 -13 10 0 6 -7 10 -15 10 -8 0 -15 4 -15 10 0 5 -3 9
-7 8 -5 -1 -18 3 -30 10 -13 7 -23 10 -23 7 0 -4 -7 1 -16 9 -18 18 -15 18
-154 21 -83 2 -110 -1 -130 -13 -14 -9 -29 -17 -33 -17 -4 0 -11 -5 -15 -10
-15 -23 -68 -16 -98 12 -16 16 -33 28 -39 29 -36 4 -52 17 -47 39 4 21 32 57
32 42 0 -4 32 25 70 64 39 38 70 73 70 77 0 15 39 31 62 25 13 -3 81 -6 153
-7 108 -1 136 2 170 17 40 19 85 65 89 91 7 46 63 78 94 53 6 -5 12 -6 12 -2
0 4 6 3 13 -4 9 -7 13 -31 12 -68 -1 -61 11 -90 53 -131 31 -29 117 -73 127
-64 5 4 5 1 1 -5 -4 -8 -1 -13 8 -13 9 0 16 -5 16 -11 0 -5 4 -8 9 -4 5 3 16
-2 24 -10 9 -8 20 -15 25 -15 14 0 62 -26 58 -31 -12 -12 272 -20 293 -9 19
10 51 22 69 26 8 1 23 11 35 21 11 10 17 12 12 4 -4 -7 6 -3 24 10 17 12 31
27 31 31 0 5 5 6 10 3 12 -7 121 105 114 117 -3 4 0 8 5 8 6 0 11 9 11 19 0
11 5 23 10 26 6 3 10 17 10 31 0 13 5 24 10 24 11 0 14 93 3 104 -4 4 -9 19
-11 33 -2 15 -12 39 -23 54 -10 15 -19 32 -19 38 0 6 -4 11 -10 11 -5 0 -10 5
-10 10 0 6 -9 20 -20 32 -10 12 -17 25 -14 30 3 5 2 7 -3 6 -4 -2 -10 2 -12 7
-15 38 -227 175 -245 158 -3 -4 -6 -2 -6 4 0 7 -43 9 -127 7 -143 -4 -203 -12
-203 -26 0 -5 -4 -7 -8 -4 -5 3 -21 -2 -37 -10 -15 -8 -30 -12 -33 -10 -2 3
-14 0 -26 -6 -11 -7 -23 -13 -26 -13 -49 -11 -86 -60 -89 -119 0 -16 -8 -37
-16 -46 -8 -9 -12 -20 -8 -23 9 -9 -29 -9 -44 1 -13 8 -14 192 -1 192 4 0 8
21 8 46 0 25 4 43 9 40 9 -6 24 44 24 77 0 9 4 17 8 17 5 0 9 8 9 18 0 10 4
22 10 28 5 5 11 19 13 30 1 12 10 33 20 47 9 15 17 30 17 35 0 5 7 15 15 22 8
7 12 16 9 21 -3 5 -2 9 3 9 4 0 13 12 20 28 6 15 19 45 29 67 9 22 18 45 19
50 1 6 3 12 4 15 9 19 13 57 15 135 2 98 -3 113 -61 174 -29 30 -33 41 -33 87
0 29 5 56 10 59 6 3 10 26 10 51 0 24 4 44 8 44 4 0 9 14 10 31 3 36 59 102
80 94 7 -2 10 -1 7 5 -3 5 6 15 19 22 14 7 24 15 23 18 -3 12 112 115 129 114
23 -1 57 -15 65 -26 7 -11 140 -12 148 -1 3 4 12 8 19 9 38 3 43 5 37 15 -4 6
-1 9 6 8 19 -3 50 11 73 33 11 10 23 18 27 18 4 0 11 9 14 20 4 11 10 18 14
15 9 -5 51 40 51 55 0 6 5 10 11 10 6 0 8 7 5 16 -3 8 -2 12 4 9 9 -5 12 8 9
31 0 4 5 10 12 14 7 5 12 25 11 45 -1 19 2 34 6 31 4 -2 8 9 8 25 1 16 -2 29
-6 29 -4 0 -7 25 -6 55 1 40 -2 55 -12 55 -8 0 -11 7 -7 19 3 10 -1 24 -10 31
-8 7 -15 19 -15 26 0 8 -4 14 -10 14 -5 0 -9 4 -7 8 2 10 -74 102 -86 102 -4
0 -19 8 -34 17 -14 10 -35 19 -47 20 -11 2 -23 7 -26 11 -7 10 -144 9 -151 -2
-4 -5 -19 -10 -33 -11 -15 -2 -33 -8 -40 -14 -7 -6 -16 -8 -19 -4 -4 3 -7 1
-7 -5 0 -7 -4 -12 -9 -12 -19 0 -89 -53 -102 -76 -7 -13 -16 -24 -21 -24 -5 0
-7 -4 -4 -9 8 -12 -20 -34 -36 -29 -17 6 -20 85 -5 128 17 48 14 224 -4 247
-10 11 -10 14 -1 9 6 -4 12 -2 12 3 0 6 -4 11 -9 11 -4 0 -8 36 -8 79 -1 44
-5 85 -9 93 -5 7 -9 30 -10 51 -2 54 -3 59 -12 53 -5 -3 -8 9 -7 27 1 18 -4
38 -11 45 -7 7 -11 18 -8 26 3 7 -2 18 -10 25 -8 7 -12 21 -9 32 3 12 0 25 -7
29 -11 7 -11 14 -1 39 10 23 19 29 39 28 15 -1 33 -8 41 -15 7 -7 26 -16 42
-19 16 -3 29 -9 29 -13 0 -9 210 -4 258 6 17 3 32 9 32 13 0 4 10 7 21 8 12 1
29 9 39 18 11 10 24 14 29 10 6 -3 11 -1 11 4 0 6 15 17 34 25 19 8 44 24 55
35 12 12 21 19 21 16 0 -3 12 6 27 20 15 14 31 25 35 25 4 0 10 9 13 20 3 11
13 20 21 20 8 0 14 4 14 9 0 5 6 16 13 23 30 30 78 109 72 118 -3 6 2 10 11
10 10 0 14 3 11 7 -4 3 1 15 10 26 10 10 17 21 16 23 -7 10 -2 25 6 20 4 -3 7
6 5 19 -1 14 1 25 5 25 9 0 33 83 35 119 0 16 4 27 7 25 8 -5 18 77 22 186 2
42 6 81 10 87 4 6 3 14 -2 17 -5 3 -6 21 -2 39 5 18 5 41 1 52 -4 11 -6 31 -4
45 7 49 -6 55 -113 52 -53 -2 -102 -7 -108 -11 -5 -5 -32 -12 -60 -15 -69 -8
-86 -12 -115 -24 -14 -5 -28 -8 -31 -6 -4 2 -12 -2 -18 -10 -7 -8 -21 -12 -31
-9 -12 3 -20 0 -20 -8 0 -7 -3 -10 -6 -7 -3 4 -20 2 -37 -3 -47 -15 -70 -21
-84 -21 -7 -1 -13 -6 -13 -11 0 -6 -3 -8 -6 -4 -3 3 -21 -3 -40 -14 -19 -10
-41 -19 -49 -19 -8 0 -15 -5 -15 -11 0 -6 -7 -9 -15 -5 -8 3 -15 1 -15 -4 0
-5 -16 -17 -35 -26 -19 -9 -61 -42 -92 -73 -70 -69 -113 -118 -94 -106 8 5 3
-7 -12 -27 -15 -19 -27 -39 -27 -43 0 -5 -10 -20 -22 -33 -13 -14 -17 -22 -10
-18 7 4 5 -6 -6 -26 -10 -18 -18 -48 -18 -67 1 -18 -4 -36 -11 -38 -6 -3 -9
-15 -7 -28 2 -13 0 -27 -6 -30 -6 -4 -7 -11 -4 -17 4 -7 2 -8 -4 -4 -7 4 -12
2 -12 -5 0 -8 -4 -8 -15 1 -8 7 -13 16 -10 20 3 5 1 11 -4 14 -5 4 -9 28 -8
55 0 27 -5 57 -12 65 -7 9 -11 23 -7 31 3 8 1 15 -4 15 -11 0 -4 38 11 56 6 8
17 14 24 14 7 0 16 7 19 16 4 9 9 14 12 11 7 -7 64 100 64 120 0 8 6 16 13 19
8 3 13 15 12 27 -1 12 2 24 6 27 4 3 9 23 11 44 1 20 5 39 9 41 10 7 10 113
-1 120 -5 3 -10 19 -10 36 0 16 -4 29 -8 29 -4 0 -9 10 -9 22 -1 13 -7 24 -12
26 -5 2 -7 10 -4 18 3 9 -1 14 -12 14 -9 0 -14 4 -10 9 9 16 -97 114 -155 144
-30 15 -67 27 -82 27 -16 0 -28 4 -28 9 0 21 -137 -3 -200 -35 -55 -28 -112
-69 -104 -76 3 -3 -7 -15 -22 -27 -15 -11 -23 -21 -18 -21 5 0 4 -4 -1 -8 -15
-10 -42 -73 -63 -142 -13 -44 -14 -170 -2 -170 6 0 10 -9 10 -20 0 -11 4 -28
9 -38 5 -9 15 -30 22 -47 7 -16 26 -45 43 -62 16 -18 26 -33 22 -33 -5 0 23
-29 60 -65 38 -35 76 -65 85 -65 8 0 20 -5 25 -10 6 -6 25 -12 42 -14 17 -3
36 -7 41 -10 9 -6 42 -70 45 -90 5 -27 38 -133 47 -151 5 -11 11 -30 14 -42 2
-12 8 -30 14 -41 5 -10 12 -30 15 -43 3 -13 8 -37 13 -54 7 -27 8 -38 4 -83
-1 -19 -41 4 -41 24 0 8 -4 12 -10 9 -6 -3 -10 1 -10 10 0 10 -5 13 -12 9 -8
-5 -9 -2 -5 9 3 10 2 17 -3 17 -6 0 -10 4 -10 9 0 17 -157 245 -202 296 -16
16 -28 34 -28 39 0 5 -10 17 -22 27 -11 11 -18 19 -14 19 4 0 -24 32 -63 70
-38 39 -67 70 -63 70 3 0 -8 13 -26 29 -17 17 -32 34 -32 40 0 5 -4 11 -9 13
-7 3 -105 89 -187 165 -14 12 -28 23 -32 23 -4 0 -25 16 -47 35 -22 19 -43 35
-47 35 -5 0 -22 13 -39 30 -18 16 -35 28 -38 25 -4 -2 -14 5 -21 16 -8 10 -23
19 -33 19 -10 0 -16 3 -13 8 2 4 -13 16 -35 26 -21 11 -39 23 -39 28 0 4 -9 8
-20 8 -11 0 -20 4 -20 8 0 5 -18 17 -40 27 -22 10 -40 21 -40 25 0 7 -23 17
-59 25 -8 2 -17 8 -20 13 -6 9 -36 22 -47 21 -4 0 -10 3 -13 8 -10 13 -49 33
-66 33 -8 0 -15 4 -15 10 0 5 -3 9 -7 8 -5 -1 -21 4 -36 10 -16 7 -33 10 -38
6 -5 -3 -9 0 -9 5 0 6 -4 11 -9 11 -5 0 -22 5 -38 12 -15 6 -31 12 -35 12 -3
1 -10 4 -14 9 -4 4 -16 7 -26 7 -10 0 -18 5 -18 12 0 6 -3 9 -6 6 -5 -6 -101
22 -149 42 -25 11 -93 24 -122 24 -13 0 -23 4 -23 9 0 4 -4 6 -9 2 -5 -3 -12
-1 -15 4 -4 5 -18 8 -32 5 -14 -3 -32 0 -39 6 -8 6 -33 11 -57 12 -24 0 -45 4
-48 8 -3 5 -30 9 -60 11 -30 1 -59 5 -65 8 -5 3 -46 7 -90 8 -120 3 -155 6
-155 12 0 9 -218 6 -227 -2 -3 -4 -13 -1 -21 6 -13 9 -14 9 -8 0z m3819 -783
c-2 -119 -12 -212 -25 -227 -6 -7 -8 -13 -4 -13 3 0 -1 -18 -10 -40 -9 -23
-14 -43 -11 -47 3 -3 -1 -12 -9 -20 -8 -8 -12 -19 -9 -24 4 -5 1 -9 -4 -9 -6
0 -11 -6 -11 -14 0 -7 -7 -19 -15 -26 -9 -7 -13 -15 -11 -17 4 -5 -14 -30 -46
-65 -10 -10 -18 -23 -18 -29 0 -5 -4 -7 -10 -4 -5 3 -10 1 -10 -5 0 -6 -3 -9
-8 -6 -4 2 -16 -2 -27 -10 -10 -8 -15 -14 -10 -14 5 0 -9 -10 -30 -21 -22 -12
-48 -21 -57 -21 -9 0 -19 -5 -22 -13 -3 -8 -13 -11 -25 -8 -12 3 -21 1 -21 -6
0 -7 -24 -11 -64 -11 -36 0 -67 -4 -70 -9 -10 -15 -55 12 -53 31 1 19 8 20
135 20 39 0 72 4 72 9 0 5 6 9 13 9 21 0 133 112 148 148 8 17 17 32 22 32 4
0 12 11 17 25 5 14 13 25 18 25 5 0 8 11 7 25 -2 14 0 25 4 25 4 0 13 20 20
45 7 25 17 45 22 45 5 0 9 15 9 34 0 19 4 37 10 41 5 3 9 26 8 51 0 26 4 49 9
53 5 3 10 23 10 43 1 34 -1 37 -18 28 -10 -6 -22 -9 -26 -8 -4 1 -18 -3 -31
-10 -12 -7 -27 -10 -32 -7 -5 3 -11 1 -15 -5 -3 -5 -21 -10 -40 -10 -19 0 -37
-4 -40 -10 -3 -5 -17 -10 -30 -10 -13 0 -27 -5 -31 -11 -3 -6 -19 -9 -35 -7
-16 3 -30 0 -32 -5 -2 -6 -12 -11 -23 -12 -10 -1 -29 -6 -41 -11 -29 -12 -103
-82 -103 -97 0 -7 -9 -18 -21 -25 -11 -7 -18 -19 -15 -27 2 -7 -2 -16 -10 -19
-9 -3 -12 -10 -9 -16 3 -6 -1 -13 -9 -16 -9 -3 -13 -11 -10 -16 4 -6 1 -14 -6
-18 -7 -4 -14 -19 -14 -32 -1 -12 -5 -29 -10 -37 -5 -7 -8 -32 -8 -55 1 -31
-5 -49 -23 -70 -13 -15 -28 -25 -34 -22 -5 3 -12 0 -14 -6 -3 -7 -6 -2 -8 12
-5 70 -4 97 6 115 7 11 11 37 11 57 -1 20 2 34 6 32 8 -5 11 5 11 39 0 9 2 17
6 17 4 0 17 20 31 45 14 25 33 48 42 51 10 3 16 10 12 15 -3 6 3 13 15 16 11
3 19 9 16 13 -4 7 24 24 33 20 2 -1 12 8 21 19 10 12 26 21 35 21 9 0 16 4 16
9 0 5 10 12 23 16 12 4 24 8 27 9 3 1 15 7 28 14 12 7 22 9 22 5 0 -4 4 -2 8
4 4 7 17 14 27 16 22 4 52 15 75 26 8 4 35 8 60 10 25 2 50 6 55 11 6 4 18 6
28 5 9 -2 17 1 17 5 0 9 36 16 85 15 l30 0 -2 -85z m-1058 -50 c11 -5 14 -9 7
-9 -7 -1 -10 -5 -7 -11 3 -5 -11 -16 -31 -25 -30 -12 -40 -13 -52 -3 -13 10
-14 10 -8 1 4 -7 2 -13 -3 -13 -6 0 -11 5 -11 10 0 6 -10 10 -22 11 -22 0 -22
1 -3 8 11 5 33 7 48 6 15 -2 26 0 23 3 -6 5 24 32 34 31 3 0 14 -4 25 -9z
m-5151 -908 c-6 -4 -10 -15 -8 -25 1 -9 -1 -15 -6 -12 -7 4 -7 22 -1 43 1 1 7
2 14 2 8 0 9 -3 1 -8z m-279 -791 c3 -5 2 -12 -3 -15 -5 -3 -9 1 -9 9 0 17 3
19 12 6z m11 -47 c-9 -6 -13 -14 -9 -16 4 -3 1 -3 -7 -1 -12 2 -11 0 2 -10 17
-13 15 -62 -2 -52 -5 3 -12 0 -16 -6 -4 -8 -3 -9 4 -5 7 4 12 2 12 -4 0 -6 6
-8 13 -4 10 6 10 4 0 -7 -15 -16 -17 -33 -3 -24 5 3 7 0 4 -9 -3 -8 -12 -17
-21 -20 -12 -5 -13 -9 -3 -21 7 -8 10 -16 6 -16 -3 -1 -10 -2 -15 -3 -17 -2
-24 -16 -8 -16 25 0 27 -15 2 -16 -24 -2 -27 14 -8 37 6 8 9 25 7 38 -3 18 -1
22 13 17 15 -6 16 -5 1 11 -8 10 -14 29 -12 43 2 14 4 37 5 53 1 15 6 27 11
27 5 0 6 4 3 10 -4 6 1 7 11 3 13 -5 15 -3 9 7 -6 9 -4 11 5 5 10 -6 9 -11 -4
-21z m-31 -244 c3 -5 1 -10 -4 -10 -6 0 -11 5 -11 10 0 6 2 10 4 10 3 0 8 -4
11 -10z m15 -35 c0 -2 -12 -2 -27 1 -26 4 -27 3 -9 -11 10 -8 24 -12 30 -9 6
3 2 -2 -8 -10 -15 -12 -16 -16 -5 -16 8 0 10 -3 4 -8 -13 -9 -19 -46 -7 -38 6
3 8 -2 5 -14 -3 -11 -10 -20 -16 -20 -6 0 -2 -7 9 -16 17 -14 17 -15 1 -10
-13 4 -16 2 -10 -7 11 -17 12 -57 1 -57 -5 0 -6 -4 -3 -10 3 -5 2 -10 -3 -10
-6 0 -13 7 -16 16 -3 8 -2 12 4 9 6 -3 10 -3 11 2 0 4 2 16 4 26 2 9 -1 15 -6
11 -5 -3 -7 -10 -4 -15 4 -5 2 -9 -3 -9 -11 0 -9 140 2 159 6 9 5 12 -1 8 -10
-7 -15 40 -6 55 3 7 53 -19 53 -27z m5834 -1696 c10 -10 14 -59 5 -59 -5 0 -9
-12 -9 -26 0 -14 -9 -33 -21 -43 -21 -17 -21 -18 -3 -52 32 -58 24 -115 -16
-113 -26 1 -60 15 -60 25 0 6 6 7 13 3 10 -6 10 -4 0 7 -16 16 -17 83 -3 110
8 14 7 19 -1 19 -8 0 -8 4 -2 13 6 6 9 27 8 45 -1 21 4 36 12 39 7 3 13 12 13
20 0 8 5 11 10 8 6 -3 10 -1 10 4 0 10 34 10 44 0z m-1029 -309 c6 -9 -8 -14
-27 -11 -5 0 -8 -6 -8 -15 0 -9 5 -12 13 -8 7 4 9 3 4 -2 -5 -5 -14 -9 -20 -9
-7 -1 -11 -6 -9 -13 1 -7 -2 -13 -8 -13 -5 -1 -16 -2 -22 -3 -7 -1 -11 -8 -10
-16 2 -8 0 -11 -4 -7 -11 11 -14 38 -3 31 5 -3 9 0 9 6 0 6 5 8 10 5 11 -7 31
35 22 49 -3 5 0 6 6 2 7 -4 12 -2 12 3 0 14 27 14 35 1z m402 -507 c3 -7 11
-9 19 -6 8 3 14 0 14 -6 0 -6 6 -11 14 -11 7 0 16 -9 19 -19 4 -16 1 -18 -17
-14 -31 8 -176 10 -176 2 0 -4 -10 -9 -21 -12 -16 -4 -20 -11 -16 -26 3 -12 0
-21 -6 -21 -8 0 -8 -3 -2 -8 13 -8 13 -22 1 -41 -7 -10 -5 -12 5 -6 8 4 5 -2
-6 -13 -11 -11 -31 -22 -45 -24 -21 -3 -25 1 -27 31 -2 19 3 41 10 49 10 13 9
15 -3 8 -8 -4 -6 0 4 8 11 9 17 16 13 16 -4 0 0 11 9 25 9 14 19 24 21 21 2
-2 16 7 30 20 14 13 32 24 39 24 8 0 14 4 14 8 0 13 103 8 107 -5z m-1497
-448 c9 0 24 -6 33 -14 10 -7 17 -11 17 -7 0 7 36 -23 100 -86 26 -26 45 -49
42 -52 -3 -3 2 -6 12 -6 10 0 14 -5 11 -11 -4 -6 3 -17 15 -26 12 -8 19 -21
16 -28 -2 -7 1 -16 8 -18 7 -3 19 -26 26 -51 7 -25 16 -46 20 -46 5 0 7 -14 6
-31 -1 -19 3 -33 11 -36 8 -3 12 -12 9 -20 -3 -8 -1 -23 4 -33 5 -10 12 -36
14 -57 3 -21 9 -51 13 -68 19 -64 7 -92 -39 -90 -18 1 -37 -1 -43 -4 -17 -10
-89 -9 -102 1 -9 7 -13 7 -13 -1 0 -7 -5 -9 -12 -5 -7 5 -32 9 -57 10 -24 2
-47 7 -50 12 -3 4 -17 9 -31 9 -30 2 -84 16 -125 33 -16 7 -33 13 -37 12 -5
-1 -8 2 -8 8 0 5 -7 10 -15 10 -16 0 -34 12 -63 43 -9 9 -20 17 -25 17 -4 0
-17 9 -29 20 -12 11 -18 20 -14 20 4 0 0 7 -9 17 -26 25 -67 94 -61 101 3 3 1
10 -4 17 -5 6 -10 26 -12 43 -1 18 -5 32 -9 32 -3 0 -7 34 -7 75 l-1 75 24
-16 c13 -9 22 -21 19 -28 -3 -8 1 -16 9 -19 9 -3 13 -18 12 -42 -2 -22 2 -38
10 -41 7 -3 10 -15 7 -30 -2 -14 0 -24 7 -24 6 0 11 -9 11 -20 0 -26 45 -112
54 -103 3 3 6 2 6 -4 0 -5 12 -23 28 -40 15 -16 32 -37 37 -46 6 -9 16 -17 24
-19 8 -2 23 -11 33 -20 10 -10 25 -18 33 -18 8 0 15 -4 15 -9 0 -5 14 -7 30
-6 17 1 33 -1 36 -6 3 -5 34 -9 70 -9 36 0 64 -4 64 -10 0 -6 33 -10 80 -10
l80 0 0 55 c0 34 -4 55 -11 55 -7 0 -9 9 -6 22 4 14 0 29 -10 40 -9 10 -13 18
-9 18 3 0 0 12 -7 28 -7 15 -13 34 -12 42 2 18 -31 88 -53 113 -8 9 -12 17 -7
17 4 0 2 7 -5 15 -7 8 -9 15 -5 15 5 0 -3 9 -16 21 -13 11 -24 24 -24 28 0 3
-10 19 -22 35 -13 16 -23 26 -23 23 0 -3 -30 24 -67 60 -40 39 -63 68 -55 71
6 2 9 9 5 15 -4 7 1 5 12 -3 10 -8 26 -15 35 -15z m-1077 -47 c-2 -5 -18 -8
-34 -8 -17 0 -28 -4 -25 -9 4 -5 -5 -4 -18 2 -16 8 -21 14 -13 19 15 10 96 5
90 -4z m232 3 c3 -5 2 -12 -3 -15 -5 -3 -9 1 -9 9 0 17 3 19 12 6z m165 -4 c0
-4 -4 -5 -10 -2 -5 3 -10 2 -10 -3 0 -13 -33 -10 -42 3 -5 6 -8 5 -8 -4 0 -11
-3 -11 -15 -1 -12 10 -15 9 -15 -6 0 -16 -2 -17 -10 -4 -8 13 -12 13 -32 1
-20 -13 -22 -12 -11 1 7 8 11 17 9 19 -2 2 29 4 70 5 41 0 74 -4 74 -9z"/>
</g>
</svg>
